# xmcd
#
# Track frame offsets:
#	150
#	15966
#	35252
#	55417
#	66853
#	81937
#	102931
#	121869
#	142988
#	156404
#	171778
#	188995
#	202709
#
# Disc length: 2829 seconds
#
# Revision: 2
# Processed by: cddbd v1.5.1PL0 Copyright (c) Steve Scherf et al.
# Submitted via: EasyCDDAExtractor 7.0.9.1
#
DISCID=a40b0b0d
DTITLE=Три и половина - Страст на парцали
DYEAR=2000
DGENRE=Blues
TTITLE0=Не Заваля
TTITLE1=Грамофонът се върти
TTITLE2=На бирата с любов
TTITLE3=Фифи кварталната
TTITLE4=Скалата
TTITLE5=Не искам да пораствам
TTITLE6=Старите кучета
TTITLE7=Сребърни слънца
TTITLE8=Последна водка
TTITLE9=Говориш си сама
TTITLE10=Пак ще ми се иска
TTITLE11=Не си търси белята
TTITLE12=Епилог
EXTD=
EXTT0=
EXTT1=
EXTT2=
EXTT3=
EXTT4=
EXTT5=
EXTT6=
EXTT7=
EXTT8=
EXTT9=
EXTT10=
EXTT11=
EXTT12=
PLAYORDER=
